<svg xmlns="http://www.w3.org/2000/svg" width="192" height="72" fill="none"><g clip-path="url(#a)"><path fill="#00FFB6" d="M36.246 27.63h-.01a8.37 8.37 0 0 0-8.37 8.37v.01a8.37 8.37 0 0 0 8.37 8.37h.01a8.37 8.37 0 0 0 8.37-8.37V36a8.37 8.37 0 0 0-8.37-8.37Z"/><path fill="#000" d="M19.816 28.25a9 9 0 0 1 9-9h17.38L65.446 0h-47.99L.236 17.22v28.33h19.58V28.24v.01Zm32.84-1.87v16.71a9 9 0 0 1-9 9h-16.71L7.026 72.01h47.99l17.22-17.22v-28.4h-19.58v-.01Z"/></g><path fill="#000" d="M114.102 26.082c-.812-6.728-4.466-10.614-9.976-10.614-4.06 0-6.438 2.494-6.438 6.496 0 11.136 20.822 11.716 20.822 28.478 0 8.584-5.51 14.152-14.326 14.152-7.482 0-11.948-2.668-11.948-5.162 0-.928.232-3.016.232-5.104 0-2.378-.232-4.698-.232-5.162 0-.986.696-1.276 1.218-1.276s.986.232 1.218 1.16c2.32 9.164 5.626 12.934 11.368 12.934 4.35 0 6.902-2.842 6.902-7.714 0-14.384-20.706-13.746-20.706-28.478 0-7.83 5.046-12.934 13.34-12.934 4.35 0 10.904 1.508 10.904 4.234 0 .812-.116 2.9-.116 4.988l.116 4.524c0 .928-.522 1.218-1.044 1.218-.58 0-1.16-.232-1.334-1.74Zm22.971 13.398c3.712 0 5.916-1.856 5.916-5.046 0-3.77-2.262-6.206-5.51-6.206-4.234 0-6.902 3.654-7.772 10.672-.058.406.116.58.464.58h6.902Zm-15.254 6.09c0-12.238 5.974-20.242 15.138-20.242 7.076 0 11.716 5.22 11.716 14.094 0 2.204-.58 2.958-1.914 2.958h-16.82c-.348 0-.522.174-.522.406l-.058 2.262c0 9.57 3.712 15.776 10.034 15.776 3.016 0 5.046-1.102 7.366-3.19.464-.406.986-.464 1.392-.174.406.29.464.812.232 1.276-1.74 3.538-6.032 5.8-10.904 5.8-9.512 0-15.66-7.482-15.66-18.966Zm39.39 12.238c0 3.016 1.798 3.654 3.074 3.944.754.174.928.522.928.986 0 .406-.232.928-.986.928-.638 0-3.48-.348-6.554-.348-2.958 0-5.8.348-6.438.348-.754 0-.986-.522-.986-.928 0-.464.174-.812.928-.986 1.276-.29 3.074-.928 3.074-3.944V15.062c0-1.624-.638-2.088-1.914-2.436-.638-.174-.812-.522-.812-.986 0-.406.116-.812.87-.928 2.262-.348 5.858-1.334 7.424-2.9.348-.348.464-.406.754-.406.464 0 .638.174.638.58v49.822Zm24.117-31.552c.928 0 1.566.522 1.566 1.392 0 .986-.406 1.508-1.566 1.508h-6.032c-.87 0-1.276.348-1.276 1.044v27.608c0 3.016 1.798 3.654 3.074 3.944.754.174.928.522.928.986 0 .406-.232.928-.986.928-.638 0-3.48-.348-6.496-.348-3.016 0-5.858.348-6.496.348-.754 0-.986-.522-.986-.928 0-.464.174-.812.928-.986 1.276-.29 3.074-.928 3.074-3.944v-27.55c0-.754-.348-1.044-1.044-1.044l-1.624.058c-.58 0-1.044-.406-1.044-1.102 0-.522.174-.87.812-1.102l1.972-.754c.638-.29.928-.696.928-1.218v-2.088c0-8.99 5.278-15.544 12.586-15.544 4.93 0 8.12 3.132 8.12 6.67 0 1.74-.986 2.842-2.436 2.842-1.334 0-2.32-.522-2.958-2.204-1.044-2.842-1.856-4.698-3.828-4.698-2.494 0-4.524 3.306-4.524 13.282v1.856c0 .754.464 1.044 1.334 1.044h5.974Z"/><defs><clipPath id="a"><path fill="#fff" d="M.236 0h72v72h-72z"/></clipPath></defs></svg>